<?xml version="1.0" encoding="utf-8"?>
<!-- Generator: Adobe Illustrator 21.0.1, SVG Export Plug-In . SVG Version: 6.00 Build 0)  -->
<svg version="1.1" id="Layer_1" xmlns="http://www.w3.org/2000/svg" xmlns:xlink="http://www.w3.org/1999/xlink" x="0px" y="0px"
	 viewBox="0 0 1056 912" style="enable-background:new 0 0 1056 912;" xml:space="preserve">
<style type="text/css">
	.st0{fill:#D1DBE1;}
	.st1{fill:#C8D4DB;}
	.st2{fill:#DDE5E9;}
	.st3{fill:#FF0037;}
	.st4{fill:#FFB668;}
	.st5{fill:#FF043A;}
	.st6{fill:#FF0B47;}
	.st7{fill:#FF0841;}
	.st8{fill:#FF002F;}
	.st9{fill:#FFC78A;}
	.st10{fill:#FFBA6F;}
</style>
<g>
	<path class="st0" d="M670.4,51.8c66.9,22.3,132.2,48.1,188.7,91.1c67.8,51.7,106.8,121.5,121.2,205.1c6.3,36.3,6.2,72.9,1.1,109.5
		c-1.3,9,0.3,19.4,6.9,24.2c20.7,14.9,18.9,36.1,18.9,57.1c0,6.8-0.6,13.6-0.9,20.5c-16-18.2-35.8-25.9-60-22.8
		c-5.8,0.7-11.8,0.6-13.2,7.6c-1.2,6-2,12.3,5.6,15.9c3.1,1.5,5.5,5,7.8,7.9c18.7,23.7,42.6,23,60-1.8c0.2,8.1,0.2,16.1,0.6,24.2
		c0.6,14.6,0.2,25.7-20.7,25.8c-12.7,0-22.7,11-24.6,26.4c-5,42-12.6,83.4-33,121.3c-35,65.3-88.2,103.8-162.3,113.5
		c-17.4,2.3-34.6,3.3-51.9,3.5c-18.5,0.2-36.4,0.2-54.4,8.6c-13.5,6.3-30.6,2.9-46.2,1.8c0.9-0.8,1.6-1.9,2.7-2.4
		c12.6-6.7,10.6-17.2,5.7-26.9c-4.4-8.7-12.6-14.4-23-10.5c-12,4.5-7.3,15.4-7.4,24.1c0,3.5,1.8,7,2.8,10.5
		c-18.3-4.1-36.8-5.4-55.5-4.3c-80.5,4.5-153.7-17.9-220.3-62c-24.4-16.2-51.3-24.2-79-31.7c-64-17.5-121.3-45.4-158.4-103.6
		c-7.8-12.3-17.9-24.5-14.2-41c27.6,47.2,65.7,81.9,118.2,99.8c29.7,10.1,59,21.1,91,21c1.6,0.6,3.8,1.4,5.4,2
		c54,48.5,117,76.5,190,81.4c22.2,5.1,44.4,4.9,66.7,0.1c19.2-0.5,37.4-4.9,55.3-11.7c6.5,0.5,9.5-6.5,21,1c1.7,1.1,4.3,2.8,6.4,3.2
		c44.2,6.9,88.2,6.2,132.6,0.2c56.1-7.6,100-32.7,130.9-80.8c25.8-40.2,37.4-84.7,39.7-131.4c1.4-28.2,5.2-57.2-4-85.2
		c-4.3-6.3,1.4-11.9,1.1-17.9c4.8-13.7,10.9-27.1,14-41.1c9.8-44,13.5-88.1,8.5-133.7c-9-81.8-47.3-146.2-107.2-200
		c-32.1-28.8-70.9-44.7-110.4-59.5c-1.4-0.9-2.8-1.8-4.2-2.8c-1.1-0.4-2.2-0.7-3.4-0.9c-28.1-20.9-61.7-26.8-94.7-33.6
		c-23.2-4.8-46.8-7.7-70.2-11.4C586.6,42.1,665.4,50.1,670.4,51.8z M968.5,529.2c11.6-0.9,26.6,0.6,27-18.3
		c0.3-12.5-8-18.9-20.2-19.2c-11.9-0.3-27.9,14-28,25.1C947.2,531.6,958.4,528.6,968.5,529.2z"/>
	<path class="st0" d="M464.2,42.1c-20,6.8-41.1,5.9-61.5,6.7c-50.2,1.9-100.6,0.5-150.8,0.4c0,0,0,0,0-0.1c-0.6-3.7,2.3-7,6-7
		C257.9,42.1,464.2,42.1,464.2,42.1z"/>
	<path class="st0" d="M313.1,558.7c-9.9-43-21.6-85.5-14.2-130.8c7.6-47.3,44.1-81.7,89.9-86c20.6-1.9,36.7,7.4,47.2,25.3
		c8.2,14.1,11,30,13.9,45.8c-0.8,34.2-1.2,68.6,3.6,102.5c3.7,26.5,11.4,35,37.6,31.7c56.1-7,100.7-30.5,119.2-87.7
		c11.7-36.1,7.2-71.3-15-103.2l0.1,0.1c-0.3-5.2-2.8-9-7.4-11.4c-32.5-39-73.5-59.1-124.9-56c-13,0.8-26.1,0.2-39.1,0.3
		c49.8-12.5,98.1-8.2,144,14.8c57.1,28.5,82.4,77.6,82.6,139.1c0.3,83-77.4,141.8-150.2,137.4c-19.9-1.2-34.2-13.3-44.2-30.6
		c-10.3-17.9-13.5-37.8-13.6-57.5c-0.1-22.5-3.6-44.6-4.7-66.9c-0.8-16.5-9.8-31.5-24.5-37.3c-15.9-6.2-33.5-6-49,6.6
		c-27.5,22.3-35.7,52.9-33.6,85.2c2.8,42.8,11.8,84.7,28.4,124.8c15.3,36.8,42.5,55.4,81.5,58.1c19.2,1.3,38.6-1.7,57.8,1.7
		c-40.5,4.9-81.2,7.1-120.2-6.5c-22.4-7.8-35.5-28.3-48.9-47l-0.3-0.3c-0.2-2.9,0.2-6-3.5-7.2l-0.2-0.3c0.2-8.2-0.9-16-7.4-22
		l-0.2-0.4c-0.2-3.9,1.2-8.4-3.5-10.9l-0.2-0.3C313.8,566.2,313.5,562.5,313.1,558.7z"/>
	<path class="st0" d="M546.6,188.2c17.2,3.5,34.2,8.2,51.1,12.4C683,222,749.5,282.7,762.9,374.4c4.2,29.1,2.1,58.9-6.3,87.6
		c-8.6-8,1.8-54.5-3.3-82c-12-63.4-50.2-104.1-107.6-128.5c-105.1-44.7-209.1-28.6-312.6,7.3c-40.3,14-75.6,37.6-114,55.3
		c-13.2,6.1-27,9-41.6,8.6c-23.6-0.5-33.6-10-35-33.8c18,10.7,34,1.2,48.7-6.8c31.6-17.2,61.9-37.1,96-48.9
		c45.1-15.6,90.4-30.3,137.8-38.7c15.6-2.7,32.1,1.5,46.7-6.4C496.6,188.2,521.6,188.2,546.6,188.2z"/>
	<path class="st0" d="M187.5,373.2c-13.3,10.8-26.4,22-40,32.5c-26.6,20.5-45.6,47.3-64.1,74.7c-1.5-12.4-9.7-19.2-20.1-24.4
		c-10.3-5.2-18.6-12.2-17.5-25.4c14.3,3.2,26.9-1.9,38.8-8.7c20.1-11.5,34.7-29.1,49.5-46.4c6.2-7.2,11.5-15.3,6.3-22.9
		c-4.8-7-14.9-3.7-22.5-1.6c-21.5,5.8-40.3,17.8-59.7,28.1c2.5-12.4,5.1-24.7,7.6-37.1c23.5,7,42.2-0.6,46.8-18.9
		c17.9,4.7,33.4,11.6,41.6,30.5C160.1,367.1,172.7,372.8,187.5,373.2z"/>
	<path class="st1" d="M594.7,885.9c-1-3.5-2.8-7-2.8-10.5c0-8.7-4.6-19.6,7.4-24.1c10.4-3.9,18.6,1.8,23,10.5
		c4.9,9.7,6.9,20.2-5.7,26.9c-1,0.5-1.8,1.6-2.7,2.4C606.5,893.2,600.2,890.9,594.7,885.9z"/>
	<path class="st0" d="M213.9,105.4c8,10.5,14.7,21.5,26,30c14.8,11,13.1,17.7-2.3,27.7c-4.6,3-8.9,6.4-13.3,9.6
		c1.8-15.2-0.7-29.7-7.5-43.5C213.3,121.7,212.6,113.6,213.9,105.4z"/>
	<path class="st2" d="M613.5,836.3c17.2-8.1,35.1-14.7,52.2-23.2c34.2-16.9,64.1-39.5,94.9-61.3c24.1-17,42.2-39.5,62.3-59.9
		c37.6-38.1,62.4-85.3,86.5-132.7c2.9-5.7,2.9-13.9,11-16.2c9.2,28,5.4,57,4,85.2c-2.3,46.6-13.9,91.2-39.7,131.4
		c-30.9,48.1-74.8,73.3-130.9,80.8c-44.4,6-88.4,6.7-132.6-0.2C618.3,839.7,615.3,839.4,613.5,836.3z"/>
	<path class="st1" d="M968.5,529.2c-10.1-0.6-21.3,2.4-21.2-12.4c0.1-11.1,16.1-25.5,28-25.1c12.2,0.3,20.5,6.7,20.2,19.2
		C995.2,529.8,980.2,528.3,968.5,529.2z"/>
</g>
<path class="st3" d="M472,847.6c22.2,0,44.4,0,66.7,0.1C516.4,852.6,494.2,852.8,472,847.6z"/>
<path class="st4" d="M726.6,90.7c-1.4-0.9-2.8-1.8-4.2-2.8C723.7,88.9,725.2,89.8,726.6,90.7z"/>
<g>
	<path class="st5" d="M554.1,42.1c23.4,3.7,47,6.6,70.2,11.4c33,6.9,66.6,12.7,94.7,33.6c-4.4-0.1-8.8,0.4-13.1-0.4
		c-68-13.2-136-18.9-205.4-11.4c-64.2,7-125.8,22.1-184.5,48.8c-15.3,6.9-32.8,10.3-47.2,24.9c47.5,18.6,94.9,26.5,142.9,31.6
		c20,2.2,40.4,1.5,59.9,7.6c-14.7,8-31.1,3.7-46.7,6.4c-47.4,8.4-92.7,23-137.8,38.7c-34.1,11.8-64.4,31.7-96,48.9
		c-14.6,8-30.7,17.5-48.7,6.8c-10.9-21.3,5.8-35.6,15-49.9c17.1-26.8,41-48,67-66.4c4.4-3.2,8.7-6.6,13.3-9.6
		c15.4-10.1,17.1-16.7,2.3-27.7c-11.3-8.4-18-19.4-26-30c-3.2-34.9,7.7-51,37.9-56.2c50.3,0.1,100.6,1.6,150.8-0.4
		c20.4-0.8,41.5,0.1,61.5-6.7C494.1,42.1,524.1,42.1,554.1,42.1z"/>
	<path class="st6" d="M278,764.9c-0.5-0.3-1-0.5-1.5-0.8c-14.7-15.7-29.4-31.5-44.1-47.2c11.8,2.8,19.4,3.2,19.4-12.2
		c0-5.2,5.4-11.2,9.8-15.5c16.7-16.4,34.2-32.1,51-48.4c6-5.8,10.4-8.4,15.8,0.6c1.9,3.1,5.2,8.6,10.2,4.4c3.4-3,0.1-6.7-1.7-9.9
		c-4.3-7.6-8.2-15.4-7.5-24.5c13.4,18.7,26.5,39.2,48.9,47c39,13.5,79.7,11.3,120.2,6.5c45.9-3.1,90.9-10.9,132.2-32.2
		c66.1-34,109.5-85.7,121.3-160.9c0.6-4,0.9-21.8,4.5-9.8c8.4-28.8,10.5-58.5,6.3-87.6C749.5,282.7,683,222,597.7,200.6
		c-17-4.3-33.9-8.9-51.1-12.4c26.2-0.3,51.7,4.9,76.8,11.6c142.2,38,233.9,128.5,279.7,267.7c6.3,19.1,8,39.8,18.5,57.6
		c0.3,6-5.4,11.7-1.1,17.9c-8.1,2.3-8.1,10.5-11,16.2c-24.1,47.4-48.9,94.6-86.5,132.7c-20.2,20.4-38.3,42.9-62.3,59.9
		c-30.8,21.8-60.7,44.4-94.9,61.3c-17.2,8.5-35,15.1-52.2,23.2c-6.1,0.1-12.2,0.1-18.3,0.2c-1.3-1.2-2.5-3.2-4-3.6
		C538,820,489.5,796.5,444.5,765.5c-4-2.7-7.2-2.8-11.9-2.2C381.2,770.1,329.6,771.2,278,764.9z"/>
	<path class="st7" d="M329.5,611.4c-0.7,9.1,3.1,16.9,7.5,24.5c1.9,3.2,5.2,7,1.7,9.9c-5,4.3-8.3-1.2-10.2-4.4
		c-5.4-8.9-9.8-6.4-15.8-0.6c-16.8,16.3-34.3,32-51,48.4c-4.3,4.2-9.8,10.2-9.8,15.5c0,15.5-7.6,15-19.4,12.2
		c14.7,15.7,29.4,31.5,44.1,47.2c-32,0.1-61.4-10.8-91-21C133,725.3,95,690.5,67.4,643.4l-0.3-1.1c-3.5-10,0,0-3.5-9.8
		c0,0-0.4-1.6-0.4-1.7c-2.7-9,0,0.1-2.7-9c-11.3-50.2-0.8-96.9,22.9-141.4c18.5-27.3,37.6-54.2,64.1-74.7
		c13.6-10.5,26.7-21.6,40-32.5c65.2-43.6,209.5-79.2,232.2-82.6c1.4-0.4,2.9-0.8,4.3-1.2c13-0.1,26.1,0.5,39.1-0.3
		c51.5-3,92.4,17.1,124.9,56c8.9,13.6,0.7,1.1,7.4,11.4l-0.1-0.1c0,3.8-0.1,7.7-0.1,11.5l0,0c-13.3-4.3-23-0.1-31.5,11
		c-25.2,33.2-57.6,59.6-86.3,89.4c-4.5,4.6-12.5,10.6-16.9,9.3c-7.7-2.2-3.3-11.8-3.7-18.1c-0.7-11.1-0.1-22.3-0.3-33.5
		c-0.1-5.3,1.6-11.8-6.7-13c-2.9-15.8-5.7-31.8-13.9-45.8c-10.5-17.9-26.6-27.2-47.2-25.3c-45.8,4.2-82.3,38.7-89.9,86
		c-7.3,45.3,4.3,87.8,14.2,130.8c1.2,10.1,5,22.8,5,22.8C324.5,600.3,329.5,611.4,329.5,611.4z"/>
	<path class="st7" d="M58.2,379c19.5-10.3,38.2-22.3,59.7-28.1c7.6-2.1,17.7-5.4,22.5,1.6c5.2,7.6-0.2,15.8-6.3,22.9
		c-14.9,17.3-29.4,34.9-49.5,46.4c-11.9,6.8-24.5,11.9-38.8,8.7c-15.2-9.6-12.5-22.1-4.3-34.2C45.9,389.7,52.6,384.7,58.2,379z"/>
	<path class="st5" d="M1006.5,566.1c-17.4,24.8-41.3,25.4-60,1.8c-2.3-2.9-4.6-6.4-7.8-7.9c-7.6-3.7-6.8-9.9-5.6-15.9
		c1.4-7,7.4-6.9,13.2-7.6c24.1-3,44,4.6,60,22.8C1006.3,561.5,1006.4,563.8,1006.5,566.1z"/>
	<path class="st5" d="M112.6,323.1c-4.6,18.3-23.3,25.8-46.8,18.9c-11.6-12-6.6-21.3,6.7-24.9C86,313.5,100.8,311,112.6,323.1z"/>
	<path class="st7" d="M546.6,188.2c-25,0-50,0-75,0.1c-19.5-6.1-39.9-5.4-59.9-7.6c-48-5.2-95.4-13-142.9-31.6
		c14.4-14.6,31.9-18,47.2-24.9c58.6-26.7,120.3-41.8,184.5-48.8c69.4-7.6,137.5-1.9,205.4,11.4c4.2,0.8,8.7,0.3,13.1,0.4
		c1.2,0.2,2.3,0.5,3.4,0.9c1.4,0.9,2.8,1.8,4.2,2.8c39.5,14.8,78.3,30.7,110.4,59.5c59.8,53.8,98.2,118.2,107.2,200
		c5,45.6,1.3,89.7-8.5,133.7c-3.1,14-9.3,27.4-14,41.1c-10.5-17.8-12.2-38.4-18.5-57.6c-45.8-139.2-137.6-229.7-279.7-267.7
		C598.3,193.1,572.8,187.9,546.6,188.2z"/>
	<path class="st7" d="M280.9,765.2c50.6,5.9,101.2,4.7,151.7-1.9c4.7-0.6,7.9-0.6,11.9,2.2c45,31,93.4,54.6,146.8,67.4
		c1.5,0.4,2.7,2.4,4,3.6c-18.2,7-37,10.7-56.5,11.2c-22.2,0-44.4,0-66.7-0.1C398.6,842.7,335.3,814.4,280.9,765.2z"/>
	<path class="st8" d="M595.4,356.4c22.2,31.9,26.7,67.1,15,103.2c-18.5,57.1-63.1,80.7-119.2,87.7c-26.2,3.3-33.8-5.2-37.6-31.7
		c-4.8-33.9-4.5-68.2-3.6-102.5c8.2,1.2,6.6,7.7,6.7,13c0.2,11.2-0.4,22.3,0.3,33.5c0.4,6.3-4,15.9,3.7,18.1
		c4.4,1.3,12.5-4.7,16.9-9.3c28.8-29.8,61.2-56.2,86.3-89.4c8.4-11.1,18.2-15.3,31.5-11c0.5,0.3,1.1,0.6,1.6,0.9
		c-0.5-0.3-1.1-0.6-1.6-0.9C595.3,364,595.3,360.2,595.4,356.4z"/>
</g>
<path class="st9" d="M313.1,558.7c0.4,3.7,0.7,7.5,1.1,11.2"/>
<path class="st10" d="M595.3,367.9c0.5,0.3,1.1,0.6,1.6,0.9C596.3,368.4,595.8,368.2,595.3,367.9L595.3,367.9z"/>
</svg>
